<?xml version="1.0" encoding="UTF-8"?>
<!DOCTYPE svg PUBLIC "-//W3C//DTD SVG 1.1//EN" "http://www.w3.org/Graphics/SVG/1.1/DTD/svg11.dtd">
<!-- Creator: CorelDRAW -->
<svg xmlns="http://www.w3.org/2000/svg" xml:space="preserve" width="21.6746mm" height="21.6746mm" version="1.1" style="shape-rendering:geometricPrecision; text-rendering:geometricPrecision; image-rendering:optimizeQuality; fill-rule:evenodd; clip-rule:evenodd"
viewBox="0 0 2167.46 2167.46"
 xmlns:xlink="http://www.w3.org/1999/xlink"
 xmlns:xodm="http://www.corel.com/coreldraw/odm/2003"
 data-name="Camada 1">
 <defs>
  <style type="text/css">
   <![CDATA[
    .str0 {stroke:#718FC8;stroke-width:20;stroke-miterlimit:22.9256}
    .fil2 {fill:#FEFEFE}
    .fil1 {fill:black}
    .fil0 {fill:#1A1A1A}
   ]]>
  </style>
 </defs>
 <rect class="fil0" width="2167.46" height="2167.46"/>
 <g id="Camada_x0020_1">
  <metadata id="CorelCorpID_0Corel-Layer"/>
 </g>
 <g id="Camada_x0020_1_0">
  <metadata id="CorelCorpID_1Corel-Layer"/>
  <rect class="fil1 str0" x="0.01" y="-0.04" width="2167.47" height="2167.5"/>
  <path class="fil2" d="M192.07 1527.12c37.37,-41.77 130.74,-142.59 149.72,-167.9 0.97,-1.29 0.3,-3.1 0.35,-4.37 4.44,-48.41 3.13,-579.23 3.34,-643.15 0.15,-49.38 -1.18,-295.6 3.93,-323.5l1446.94 -5.01c-111.34,140.05 -639.45,727.63 -940.48,1071.82 -29.1,36.56 -111.06,111.59 -75.37,151.4 29.59,34.52 166.91,25.82 222.68,24.98 164.89,1.65 329.82,-0.17 494.71,-0.58 88.7,-0.21 190.98,14.82 195.21,-55.38 7.56,-126.1 -35.73,-111.16 -136.74,-111.05 -166.75,0.15 -327.17,2.93 -493.6,0.18 302.01,-327.66 644.4,-731.35 923.92,-1059.52 35.38,-47.54 37.94,-117.56 22.66,-144.21 -21.75,-42.7 -97.34,-39.6 -142.67,-39.38l-1326.73 -0.22c-401.27,6.18 -342.61,-36.5 -350.62,143.82 -4.15,312.88 10.22,843.37 2.75,1162.07z"/>
  <path class="fil2" d="M1098.29 714.44c-1.13,22.65 -778.67,910.04 -842.71,1000.18 -18.65,27.14 -136.43,184.28 49.76,233.97 497.93,3.46 1036.96,1.13 1534.36,1.02 219.24,-3.56 173.08,26.24 178.34,-165.24 -0.06,-327.56 -2.39,-834.51 -3.38,-1156.99 -73.14,65.32 -115.58,110.49 -137.18,132.84 -24.2,25.06 -25.67,24.82 -25.67,29.33 0,3.95 0.15,10.64 0.01,15.41 -5.99,206.19 -0.44,443.03 -0.31,653.31 0.02,52.68 4.67,296.48 -0.37,326.2 -134.52,4.61 -1414.98,8.49 -1446.03,-2.3 5.81,-25.11 798.23,-931.89 889.38,-1044.78 10.46,-16.16 67.88,-74.86 95.52,-119.75 5.18,-8.4 29.82,-75.18 -58.53,-73.02 -242.8,0.4 -485.77,1.88 -728.56,0.5 -33.5,-0.2 -74.77,-4.59 -86.39,36.25 -2.43,19.32 -3.61,68.73 -0.95,99.95 1.97,41.38 39.9,32.75 100.8,32.82 60.25,-0.38 457.25,-4.07 481.91,0.3z"/>
 </g>
</svg>
